<svg width="250" height="179" viewBox="0 0 250 179" fill="none" xmlns="http://www.w3.org/2000/svg">
<path d="M166.016 70.1562C160.156 70.1562 155.859 74.8437 155.859 80.3125C155.859 86.1719 160.547 90.4688 166.016 90.4688C171.875 90.4688 176.172 85.7813 176.172 80.3125C176.563 74.8437 171.875 70.1562 166.016 70.1562Z" fill="#FF6700"/>
<path d="M234.375 33.8281C226.953 26.4062 216.797 22.1094 206.641 22.1094H131.641V-43.125C131.641 -47.0313 128.516 -50.1563 124.609 -50.1563C120.703 -50.1563 117.578 -47.0313 117.578 -43.125V22.1094H43.3594C21.875 22.1094 4.29688 39.2969 4.29688 60.7813V131.094C4.29688 152.187 21.875 169.766 43.3594 169.766C63.2812 169.766 80.0781 154.922 82.0312 135.781H166.797C168.75 154.922 185.547 170.156 205.469 170.156C226.953 170.156 244.141 152.969 244.141 131.484V60.7813C245.312 50.625 241.406 41.25 234.375 33.8281ZM231.25 131.484C231.25 145.156 219.922 156.484 206.25 156.484C192.187 156.484 180.859 145.156 180.859 131.484C180.859 126.016 176.562 122.109 171.094 122.109H78.9062C73.4375 122.109 69.1406 126.406 69.1406 131.484C69.1406 145.156 57.8125 156.094 43.75 156.094C29.6875 156.094 18.3594 144.766 18.3594 131.094V60.7813C18.3594 47.1094 29.6875 35.7812 43.75 35.7812H206.25C212.891 35.7812 219.531 38.5156 224.219 43.5937C228.906 48.2812 231.25 54.5313 231.25 60.7813V131.484Z" fill="#FF6700"/>
<path d="M80.8594 73.6719H69.9219V62.7344C69.9219 58.8281 66.7969 55.7031 62.8906 55.7031C58.9844 55.7031 55.8594 58.8281 55.8594 62.7344V73.6719H44.9219C41.0156 73.6719 37.8906 76.7969 37.8906 80.7031C37.8906 84.6094 41.0156 87.7344 44.9219 87.7344H55.8594V98.6719C55.8594 102.578 58.9844 105.703 62.8906 105.703C66.7969 105.703 69.9219 102.578 69.9219 98.6719V87.3437H80.8594C84.7656 87.3437 87.8906 84.2187 87.8906 80.3125C87.8906 76.4062 84.7656 73.6719 80.8594 73.6719Z" fill="#FF6700"/>
<path d="M207.422 70.1562C201.562 70.1562 197.266 74.8437 197.266 80.3125C197.266 86.1719 201.953 90.4688 207.422 90.4688C213.281 90.4688 217.578 85.7813 217.578 80.3125C217.578 74.8437 213.281 70.1562 207.422 70.1562Z" fill="#FF6700"/>
<path d="M186.719 70.1562C192.578 70.1562 196.875 65.4688 196.875 60C196.875 54.1406 192.187 49.8438 186.719 49.8438C180.859 49.8438 176.562 54.5313 176.562 60C176.563 65.8594 181.25 70.1562 186.719 70.1562Z" fill="#FF6700"/>
<path d="M186.719 90.8594C180.859 90.8594 176.562 95.5469 176.562 101.016C176.562 106.484 181.25 111.172 186.719 111.172C192.578 111.172 196.875 106.484 196.875 101.016C196.875 95.5469 192.578 90.8594 186.719 90.8594Z" fill="#FF6700"/>
</svg>
