<svg width="200" height="179" viewBox="0 0 200 179" fill="none" xmlns="http://www.w3.org/2000/svg">
<path d="M100 56.6667V165M100 56.6667C100 56.6667 100 44.2269 100 40C100 30.7953 107.462 23.3333 116.667 23.3333C125.871 23.3333 133.333 30.7953 133.333 40C133.333 49.2047 125.871 56.6667 116.667 56.6667C111.689 56.6667 100 56.6667 100 56.6667ZM100 56.6667C100 56.6667 100 40.5243 100 35.8333C100 24.3274 90.6726 15 79.1667 15C67.6607 15 58.3333 24.3274 58.3333 35.8333C58.3333 47.3393 67.6607 56.6667 79.1667 56.6667C85.9817 56.6667 100 56.6667 100 56.6667ZM41.6667 90H158.333M41.6667 90C32.4619 90 25 82.5381 25 73.3333C25 64.1286 32.4619 56.6667 41.6667 56.6667H158.333C167.538 56.6667 175 64.1286 175 73.3333C175 82.5381 167.538 90 158.333 90M41.6667 90L41.6667 148.333C41.6667 157.538 49.1286 165 58.3333 165H141.667C150.871 165 158.333 157.538 158.333 148.333V90" stroke="#FF6700" stroke-width="11" stroke-linecap="round" stroke-linejoin="round"/>
</svg>
